<svg xmlns="http://www.w3.org/2000/svg" viewBox="0 0 33.93 37.26"><title>资源 1</title><g id="图层_2" data-name="图层 2"><g id="图层_1-2" data-name="图层 1"><path d="M18.74,36.16a2.16,2.16,0,0,1,4.17.86l1.88.24c.08-.54.18-1.07.28-1.61a2.14,2.14,0,0,1-.4-1.69c.27-1.41.59-2.79,1-4.14a.54.54,0,0,0-.13-.52L25,28.77a.89.89,0,0,1-.18-1L28,20.36a.89.89,0,0,1,.9-.54l.61.06a.54.54,0,0,0,.52-.27c.48-.82,1.36-2.57,1.9-3.37a2.1,2.1,0,0,1,1.27-.87c.25-.37.48-.75.74-1.11l-1.68-1.17a2.16,2.16,0,0,1-3.53-2.45L13.42,0A77.53,77.53,0,0,0,0,34.13l18.65,2.36A2.15,2.15,0,0,1,18.74,36.16Z" fill="aqua" opacity="0.2"/></g></g></svg>